HIERARCHY
ROOT Hips
{
  OFFSET 54.1671 95.9177 122.497
  CHANNELS 6 Xposition Yposition Zposition Zrotation Xrotation Yrotation
  JOINT RightUpLeg
  {
    OFFSET -8.9458 -8.66707 0.101652
    CHANNELS 3 Zrotation Xrotation Yrotation
    JOINT RightLeg
    {
      OFFSET 0 -44.4227 1.3727
      CHANNELS 3 Zrotation Xrotation Yrotation
      JOINT RightFoot
      {
        OFFSET 0.253549 -42.0924 -1.46059
        CHANNELS 3 Zrotation Xrotation Yrotation
        JOINT RightToes
        {
          OFFSET 0.04 -4.41509 8.4991
          CHANNELS 3 Zrotation Xrotation Yrotation
          End Site
          {
            OFFSET -0.08 -0.137448 9.77979
          }
        }
      }
    }
  }
  JOINT Spine
  {
    OFFSET 0 11.8905 0
    CHANNELS 3 Zrotation Xrotation Yrotation
    JOINT Spine1
    {
      OFFSET 0 25.6574 0.127663
      CHANNELS 3 Zrotation Xrotation Yrotation
      JOINT HEad
      {
        OFFSET 0 8.73416 0.011341
        CHANNELS 3 Zrotation Xrotation Yrotation
        End Site
        {
          OFFSET -0.29 12.7742 2.51395
        }
      }
      JOINT LeftShoulder1
      {
        OFFSET 8.99 -0.362252 -0.22
        CHANNELS 3 Zrotation Xrotation Yrotation
        JOINT LeftArm
        {
          OFFSET 10.2827 -0.00338 0.322123
          CHANNELS 3 Zrotation Xrotation Yrotation
          JOINT LeftForeArm
          {
            OFFSET 32.7669 0.099144 -1.42434
            CHANNELS 3 Zrotation Xrotation Yrotation
            JOINT LeftHand
            {
              OFFSET 27.5643 0.085362 1.02216
              CHANNELS 3 Zrotation Xrotation Yrotation
              End Site
              {
                OFFSET 16.7443 -0.6 1.50291
              }
            }
          }
        }
      }
      JOINT RightShoulder
      {
        OFFSET -8.99 -0.362252 -0.22
        CHANNELS 3 Zrotation Xrotation Yrotation
        JOINT RightArm
        {
          OFFSET -10.2827 -0.00338 0.322123
          CHANNELS 3 Zrotation Xrotation Yrotation
          JOINT RightForeArm
          {
            OFFSET -32.8971 0.099144 -1.42434
            CHANNELS 3 Zrotation Xrotation Yrotation
            JOINT RightHand
            {
              OFFSET -27.4921 0.085362 1.02216
              CHANNELS 3 Zrotation Xrotation Yrotation
              End Site
              {
                OFFSET -16.6312 -0.6 1.50291
              }
            }
          }
        }
      }
    }
  }
  JOINT LeftUpLeg
  {
    OFFSET 8.9458 -8.66707 0.101652
    CHANNELS 3 Zrotation Xrotation Yrotation
    JOINT LeftLeg
    {
      OFFSET 0 -44.4227 1.3727
      CHANNELS 3 Zrotation Xrotation Yrotation
      JOINT LeftFoot
      {
        OFFSET -0.253549 -42.0924 -1.46059
        CHANNELS 3 Zrotation Xrotation Yrotation
        JOINT LeftToes
        {
          OFFSET -0.04 -4.41509 8.4991
          CHANNELS 3 Zrotation Xrotation Yrotation
          End Site
          {
            OFFSET 0.08 -0.047448 9.77979
          }
        }
      }
    }
  }
}
MOTION
Frames:	12
Frame Time:	0.0166667
59.2656 95.7151 -23.8237 -2.30868 -2.78895 175.483 0.456263 -17.4696 -6.44342 -14.2419 60.7189 23.52 4.42201 1.476 -0.368311 -19.3198 -10.9883 -4.20247 -1.45288 2.9216 -0.0265521 -2.29516 6.3306 0.321539 -1.85444 1.46478 14.1689 9.93923e-017 0 -7.95139e-016 -88.1225 -66.442 -6.25876 -6.53621 12.8377 -19.9024 0.368473 9.90896 -0.00117926 -7.38138 0.277478 10.383 108.1 -46.8032 21.2682 3.08423 11.5318 17.2196 -0.369625 9.91382 0.00119886 -0.853687 -20.1351 -3.30848 -10.2985 15.1076 20.6691 -11.5994 -9.7972 -0.393068 -6.5903 4.99546 -1.46272 
59.1054 95.4349 -25.2479 -2.84699 -2.54489 175.23 0.0026642 -19.3941 -6.90544 -19.3806 63.8569 28.5885 4.28908 1.146 -0.36603 -18.3989 -10.3333 -3.89927 -2.59405 3.05785 0.0814395 -2.3138 6.46287 0.290904 -2.25647 1.64154 14.4921 -2.98177e-016 0 -0 -88.6009 -66.3382 -6.68609 -6.67665 12.8765 -20.0107 0.368473 9.90896 -0.00117926 -7.64169 0.243496 10.2662 107.97 -47.2011 20.8483 2.83756 11.5 16.5009 -0.369625 9.91382 0.00119886 -1.60649 -19.9831 -2.94776 -10.4563 17.1647 20.7091 -11.6695 -11.2683 -0.534497 -5.81142 5.20831 -1.30649 
58.9557 95.3587 -26.6681 -3.09298 -2.4628 175.057 -0.0559905 -21.1483 -5.89673 -21.246 66.268 28.7597 4.54595 0.639127 -0.358493 -6.81425 -9.74409 -1.61481 -3.25136 3.1304 0.155703 -2.12473 6.31145 0.238583 -2.56282 1.76791 14.7243 5.96354e-016 -1.59028e-015 7.95139e-016 -89.053 -66.1088 -7.17569 -6.88567 12.9295 -20.09 0.368473 9.90896 -0.00117926 -7.82525 0.220727 10.2307 107.746 -47.8079 20.4078 2.55111 11.4551 15.9338 -0.369625 9.91382 0.00119886 -2.15974 -19.5586 -2.90869 -10.3498 18.3443 20.721 -11.8068 -12.4666 -0.660291 -5.365 5.52922 -1.21667 
58.816 95.371 -28.0694 -3.22612 -2.49959 174.945 0.105125 -22.88 -4.45889 -21.0725 68.0545 26.721 4.56866 -0.0648728 -0.335131 5.62218 -9.04166 0.808509 -3.60028 3.15453 0.191416 -1.94974 6.0085 0.196412 -2.77147 1.8383 14.8973 -3.97569e-016 -1.59028e-015 -7.95139e-016 -89.4819 -65.7129 -7.74668 -7.1556 12.9987 -20.2083 0.368473 9.90896 -0.00117926 -7.85244 0.217134 10.2094 107.401 -48.5138 19.9687 2.26627 11.4067 15.4589 -0.369625 9.91382 0.00119886 -2.60021 -19.0202 -3.04251 -10.2134 19.0087 20.725 -11.9415 -13.4187 -0.765407 -5.10203 5.68796 -1.16474 
58.6759 95.4381 -29.4349 -3.37055 -2.68194 174.867 0.177998 -24.7393 -3.43017 -20.4565 69.0011 25.2491 3.86159 -0.624133 -0.286239 9.97955 -8.36188 1.6045 -3.65301 3.13096 0.152263 -2.01395 5.58927 0.201581 -2.92388 1.80984 15.0648 -3.97569e-016 -1.59028e-015 -0 -89.7909 -65.1036 -8.34937 -7.51753 13.0954 -20.4563 0.368473 9.90896 -0.00117926 -7.6001 0.248257 10.2039 106.918 -49.2554 19.5763 2.00681 11.3588 15.0681 -0.369625 9.91382 0.00119886 -2.93077 -18.3989 -3.395 -10.3462 19.0768 20.8493 -12.0051 -13.9667 -0.827385 -5.01023 5.29279 -1.15008 
58.5621 95.5277 -30.7931 -3.5116 -2.88542 174.979 0.199807 -26.4994 -2.78628 -19.3197 69.2359 23.7343 2.9147 -1.26921 -0.232142 10.8537 -7.65969 1.73902 -3.54899 3.07607 0.0769089 -2.22588 5.18124 0.23393 -2.88869 1.79875 15.0265 3.97569e-016 -1.59028e-015 7.95139e-016 -90.2454 -64.2473 -9.25865 -7.80568 13.1744 -20.6563 0.368473 9.90896 -0.00117926 -7.1491 0.298818 10.0781 106.222 -50.0712 19.0522 1.82614 11.3205 14.782 -0.369625 9.91382 0.00119886 -3.25105 -17.6854 -3.7602 -10.4779 18.923 20.7773 -12.0476 -14.3512 -0.873692 -4.98373 4.80781 -1.14878 
58.5025 95.5823 -32.1776 -3.72668 -3.01756 175.529 -0.052436 -27.9953 -2.95391 -18.1944 68.8373 22.702 2.04813 -2.09438 -0.190633 9.19373 -6.82902 1.49389 -3.42938 3.00373 -0.0165023 -2.65965 4.86089 0.29761 -2.46108 1.98017 14.4857 3.97569e-016 0 -0 -90.9294 -63.0154 -10.6441 -7.84287 13.1894 -20.6389 0.368473 9.90896 -0.00117926 -6.45169 0.367745 9.64047 105.079 -51.056 18.0999 1.81269 11.3056 14.6179 -0.369625 9.91382 0.00119886 -3.75552 -16.9358 -3.86521 -10.3967 18.983 20.0643 -12.122 -14.8092 -0.933145 -4.88285 4.6219 -1.13009 
58.4827 95.6426 -33.5553 -3.85823 -3.00887 176.225 -0.283178 -29.1931 -3.49994 -16.9952 67.7948 21.7471 1.27388 -3.16664 -0.159687 6.93426 -6.15172 1.14117 -3.30147 2.92223 -0.102723 -3.0452 4.81649 0.357011 -1.89812 2.13524 13.7859 5.96354e-016 0 -0 -92.0341 -61.6129 -12.5465 -7.69956 13.1584 -20.4692 0.368473 9.90896 -0.00117926 -5.76806 0.428335 9.05885 103.888 -51.9646 17.0583 1.88561 11.3049 14.5774 -0.369625 9.91382 0.00119886 -4.20316 -15.9885 -3.96998 -10.2326 18.9839 19.2354 -12.1612 -15.1939 -0.981796 -4.79754 4.56892 -1.11341 
58.5096 95.7375 -34.8963 -3.73387 -2.69025 176.86 -0.120639 -29.9351 -4.07489 -15.7597 66.0981 20.5805 0.743385 -4.72799 -0.145228 6.93248 -5.93397 1.14526 -3.23426 2.84512 -0.141509 -3.07872 5.41112 0.371458 -1.40918 2.03157 13.1691 3.97569e-016 0 -0 -94.0331 -60.1617 -15.3308 -7.35009 13.0723 -20.1095 0.368473 9.90896 -0.00117926 -5.41105 0.443707 8.41256 103.155 -52.5102 16.2886 1.99284 11.3133 14.7041 -0.369625 9.91382 0.00119886 -4.35291 -14.6024 -4.32994 -10.0516 18.7482 18.7397 -12.0668 -15.3616 -0.991658 -4.8464 4.65386 -1.12265 
58.5468 95.8441 -36.2246 -3.50539 -2.26747 177.431 0.208724 -30.4277 -4.75513 -14.6936 63.7918 19.4525 0.356562 -6.34777 -0.141405 7.27703 -6.00009 1.19837 -3.18275 2.77049 -0.159757 -2.93861 6.19691 0.360659 -0.967106 1.87722 12.6437 2.98177e-016 0 3.97569e-016 -96.1621 -58.7131 -18.1845 -6.90057 12.9624 -19.7001 0.368473 9.90896 -0.00117926 -5.18138 0.442274 7.77518 102.521 -52.9317 15.5727 2.135 11.3309 14.8897 -0.369625 9.91382 0.00119886 -4.34074 -13.0744 -4.67344 -9.85014 18.4432 18.3699 -11.9835 -15.5397 -1.00292 -4.80384 4.75226 -1.11358 
58.5527 95.937 -37.5583 -3.28058 -1.89055 177.85 0.572229 -30.8417 -5.60858 -14.1518 60.9006 18.5698 0.0569287 -7.65455 -0.145953 6.65917 -6.30299 1.09089 -3.14992 2.69995 -0.172484 -2.71184 6.82581 0.331 -0.594138 1.84836 12.3312 -1.98785e-016 -3.18055e-015 -5.96354e-016 -97.9928 -57.428 -20.5414 -6.45127 12.8606 -19.3948 0.368473 9.90896 -0.00117926 -4.97312 0.441769 7.26127 101.752 -53.3793 14.7975 2.28958 11.3557 15.0245 -0.369625 9.91382 0.00119886 -4.26971 -11.6608 -4.73238 -9.64576 18.2629 18.0544 -12.092 -16.0299 -1.06638 -4.38655 4.66793 -1.03056 
58.5497 96.0527 -38.8854 -2.98156 -1.56033 178.17 1.05507 -31.1272 -6.31593 -13.5089 57.4875 17.5813 -0.134772 -8.71272 -0.153781 6.14365 -6.76251 0.995046 -3.06103 2.63652 -0.175062 -2.36636 7.36143 0.28122 -0.324898 1.81504 12.1328 3.97569e-016 0 3.97569e-016 -99.6828 -56.2778 -22.6418 -6.00063 12.7611 -19.1146 0.368473 9.90896 -0.00117926 -4.81645 0.437938 6.82733 100.89 -53.8247 13.9435 2.47402 11.389 15.1567 -0.369625 9.91382 0.00119886 -4.09729 -10.2395 -4.77065 -9.42445 17.9496 17.8271 -12.1898 -16.4652 -1.12359 -3.886 4.62107 -0.931662 
